<?xml version="1.0" standalone="no"?>
<!DOCTYPE svg PUBLIC "-//W3C//DTD SVG 20010904//EN"
 "http://www.w3.org/TR/2001/REC-SVG-20010904/DTD/svg10.dtd">
<svg version="1.0" xmlns="http://www.w3.org/2000/svg"
 width="1200.000000pt" height="1200.000000pt" viewBox="0 0 1200.000000 1200.000000"
 preserveAspectRatio="xMidYMid meet">

<g transform="translate(0.000000,1200.000000) scale(0.100000,-0.100000)"
fill="#000000" stroke="none">
<path d="M5875 11994 c-117 -19 -236 -67 -331 -132 -33 -22 -314 -296 -626
-609 l-568 -568 688 -688 689 -689 54 16 c201 57 432 37 625 -53 105 -50 162
-89 248 -170 127 -122 215 -275 258 -447 30 -124 30 -304 -1 -429 l-22 -89
663 -663 663 -662 70 20 c101 30 284 36 400 14 186 -35 361 -130 491 -267 113
-120 180 -235 225 -390 26 -92 37 -308 20 -400 -66 -349 -300 -613 -641 -723
-70 -23 -109 -28 -223 -33 -85 -3 -161 0 -200 7 -356 68 -627 316 -729 668
-20 67 -23 100 -22 238 0 134 4 172 23 235 12 41 24 84 27 95 4 16 -121 146
-611 635 l-615 615 0 -1626 0 -1627 69 -40 c84 -51 208 -165 266 -247 59 -82
120 -212 146 -310 29 -105 31 -325 6 -429 -71 -285 -274 -531 -528 -638 -536
-225 -1126 73 -1266 638 -25 103 -23 324 5 427 25 89 85 224 133 294 80 117
218 238 347 302 l62 31 0 1645 0 1644 -60 30 c-85 43 -145 85 -224 160 -184
177 -278 396 -280 651 0 127 10 197 46 304 l19 60 -678 678 -678 678 -1818
-1817 c-1062 -1062 -1835 -1842 -1859 -1877 -94 -137 -132 -260 -132 -436 -1
-101 4 -140 22 -204 34 -116 92 -220 180 -321 138 -159 5316 -5314 5379 -5356
119 -80 269 -122 428 -121 156 1 294 44 427 132 43 29 872 851 2651 2629 1424
1422 2626 2627 2670 2677 99 110 140 177 179 289 73 214 45 466 -75 657 -38
61 -497 523 -2744 2770 l-2698 2696 -95 45 c-52 25 -122 53 -155 62 -61 16
-245 27 -300 19z"/>
</g>
</svg>
